<?xml version="1.0" encoding="UTF-8"?>
<svg id="Capa_1" data-name="Capa 1" xmlns="http://www.w3.org/2000/svg" viewBox="0 0 32 32">
  <defs>
    <style>
      .cls-1 {
        fill: #fff;
        stroke-width: 0px;
      }

      .cls-2 {
        stroke-miterlimit: 10;
      }

      .cls-2, .cls-3 {
        fill: none;
        stroke: #fff;
        stroke-width: 1.5px;
      }

      .cls-3 {
        stroke-linecap: round;
        stroke-linejoin: round;
      }
    </style>
  </defs>
  <g>
    <path class="cls-1" d="M16,11.87c.51,0,.93.35.93.79v4.1c0,.43-.42.79-.93.79s-.93-.35-.93-.79v-4.1c0-.43.42-.79.93-.79Z"/>
    <circle class="cls-1" cx="16" cy="19.52" r=".93"/>
  </g>
  <g>
    <path class="cls-3" d="M10.15,10.31h11.7v5.85c0,3.23-2.62,5.85-5.85,5.85h0c-3.23,0-5.85-2.62-5.85-5.85v-5.85h0Z"/>
    <path class="cls-2" d="M19.02,4h0c.66,0,1.2.54,1.2,1.2v5.11h-2.39v-5.11c0-.66.54-1.2,1.2-1.2Z"/>
    <path class="cls-2" d="M11.78,4h2.39v5.11c0,.66-.54,1.2-1.2,1.2h0c-.66,0-1.2-.54-1.2-1.2v-5.11h0Z" transform="translate(25.95 14.31) rotate(-180)"/>
    <path class="cls-3" d="M15.91,22.01v1.77c0,2.33,1.89,4.22,4.22,4.22"/>
  </g>
</svg>