<svg id="Capa_1" data-name="Capa 1" xmlns="http://www.w3.org/2000/svg" viewBox="0 0 32 32"><defs><style>.cls-1{fill:none;stroke:#000;stroke-linecap:round;stroke-linejoin:round;stroke-width:1.5px;}</style></defs><title>ICON_CLIMA_RECINTO_NEGRO</title><path class="cls-1" d="M11.3,14.41a5.37,5.37,0,0,1-.72-2.7A5.42,5.42,0,1,1,20.7,14.42"/><line class="cls-1" x1="16" y1="2.52" x2="16" y2="4.33"/><line class="cls-1" x1="10.43" y1="4.28" x2="11.47" y2="5.76"/><line class="cls-1" x1="7.05" y1="8.91" x2="8.75" y2="9.52"/><line class="cls-1" x1="7.13" y1="14.74" x2="8.87" y2="14.27"/><line class="cls-1" x1="16" y1="2.52" x2="16" y2="4.33"/><line class="cls-1" x1="21.57" y1="4.28" x2="20.53" y2="5.76"/><line class="cls-1" x1="24.95" y1="8.91" x2="23.25" y2="9.52"/><line class="cls-1" x1="24.87" y1="14.74" x2="23.13" y2="14.27"/><path class="cls-1" d="M6.5,21.62l8.81-7.83a1,1,0,0,1,1.38,0l8.81,7.83"/><path class="cls-1" d="M8.47,20.15v8.4a1,1,0,0,0,1,.93H14v-4a1,1,0,0,1,1-.94h2a1,1,0,0,1,1,.94v4h4.58a1,1,0,0,0,1-.93v-8.4"/><line class="cls-1" x1="12.72" y1="29.48" x2="20.91" y2="29.48"/></svg>