<?xml version="1.0" encoding="UTF-8" standalone="no"?>
<svg
   id="Capa_1"
   data-name="Capa 1"
   viewBox="0 0 32 32"
   version="1.1"
   sodipodi:docname="ICON_372_ETAPA_TERMICA_OK_BLANCO.svg"
   inkscape:export-filename="ICON_372_ETAPA_TERMICA_OK_BLANCO_32x32.png"
   inkscape:export-xdpi="96"
   inkscape:export-ydpi="96"
   inkscape:version="1.4 (86a8ad7, 2024-10-11)"
   xmlns:inkscape="http://www.inkscape.org/namespaces/inkscape"
   xmlns:sodipodi="http://sodipodi.sourceforge.net/DTD/sodipodi-0.dtd"
   xmlns="http://www.w3.org/2000/svg"
   xmlns:svg="http://www.w3.org/2000/svg"
   xmlns:rdf="http://www.w3.org/1999/02/22-rdf-syntax-ns#"
   xmlns:cc="http://creativecommons.org/ns#">
  <sodipodi:namedview
     id="namedview1"
     pagecolor="#ffffff"
     bordercolor="#000000"
     borderopacity="0.25"
     inkscape:showpageshadow="2"
     inkscape:pageopacity="0.0"
     inkscape:pagecheckerboard="0"
     inkscape:deskcolor="#d1d1d1"
     inkscape:zoom="5.6568543"
     inkscape:cx="-7.3362328"
     inkscape:cy="9.8111065"
     inkscape:window-width="1920"
     inkscape:window-height="1009"
     inkscape:window-x="-8"
     inkscape:window-y="-8"
     inkscape:window-maximized="1"
     inkscape:current-layer="g9714-1" />
  <defs
     id="defs1">
    <style
       id="style1">.cls-1{fill:none;stroke:#ccc;stroke-linecap:round;stroke-linejoin:round;stroke-width:1.5px;}</style>
  </defs>
  <g
     id="g50944-8"
     transform="matrix(1.8601206,0,0,1.8557903,-305.99172,-282.49969)">
    <g
       id="g9714-1"
       transform="matrix(1.1258647,0,0,1.1258647,-20.057082,-19.861012)">
      <g
         id="g2"
         transform="matrix(0.58986426,0,0,0.48791855,59.898558,82.27734)">
        <path
           id="path5927-9-3-6-9"
           style="fill:none;stroke:#cccccc;stroke-width:1.22395;stroke-linecap:butt;stroke-linejoin:miter;stroke-miterlimit:4;stroke-dasharray:none;stroke-opacity:1"
           d="m 188.03765,168.62426 -0.37306,0.40382 -0.40288,0.16353 -0.44766,-0.0145 -0.2686,-0.17945 -0.2835,-0.32904 -1.89601,-3.24747 c -0.13842,0.21939 -0.26027,0.44502 -0.33948,0.68427 -0.18912,0.57102 -0.28594,1.18883 -0.18558,1.77704 0.0906,0.53135 0.36605,1.03838 0.69478,1.49099 0.31831,0.43825 0.73789,0.82582 1.20588,1.14325 0.4164,0.28243 0.88877,0.51923 1.39146,0.65436 0.57965,0.15611 1.2042,0.20443 1.80834,0.16262 0.54202,-0.0374 1.08778,-0.15864 1.57706,-0.36737 0.4869,-0.2078 0.9264,-0.51193 1.29819,-0.85814 0.34472,-0.32098 0.61821,-0.70359 0.8347,-1.10213 0.24476,-0.45064 0.4468,-0.93381 0.51014,-1.43023 0.0641,-0.50227 0.019,-1.02563 -0.13896,-1.51157 -0.14835,-0.4567 -0.44122,-0.87167 -0.74237,-1.26569 -0.23877,-0.3124 -0.31958,-0.3654 -0.61763,-0.65311 0,0 -0.20646,-0.16335 -0.28432,-0.2197 -1.12106,1.54485 -2.2411,3.1376 -3.3405,4.69849 z"
           sodipodi:nodetypes="cccccccsssscsssssssccc" />
        <path
           id="path8010"
           style="fill:none;stroke:#cccccc;stroke-width:1.22395;stroke-linecap:butt;stroke-linejoin:miter;stroke-miterlimit:4;stroke-dasharray:none;stroke-opacity:1"
           d="m 188.351,149.27291 c -0.30967,0.004 -0.6179,0.0443 -0.90463,0.14869 -0.35524,0.12916 -0.68764,0.3611 -0.92795,0.65343 -0.26497,0.3223 -0.51152,0.73363 -0.51015,1.14326 0.0235,7.22936 0.0428,0.4359 0.0457,4.41501 l 1.02868,0.55435 3.9002,-3.32413 c -0.005,-2.99227 -0.005,1.87105 -0.005,-1.67889 1e-5,-0.313 -0.12796,-0.66905 -0.31056,-0.946 -0.18157,-0.27532 -0.4529,-0.49605 -0.74237,-0.65343 -0.31042,-0.16877 -0.66872,-0.25258 -1.02028,-0.28604 -0.18221,-0.0181 -0.36817,-0.0286 -0.55396,-0.0262 z"
           sodipodi:nodetypes="ccsccccsssccc" />
        <path
           id="path7827-8-1-2-9"
           style="fill:#cccccc;fill-opacity:1;stroke:none;stroke-width:0.268895px;stroke-linecap:butt;stroke-linejoin:miter;stroke-opacity:1"
           d="m 190.10431,165.61423 -2.06666,3.01003 -0.37306,0.40382 -0.17541,0.0711 c 0.14419,0.0695 0.29599,0.12536 0.45231,0.16172 0.29383,0.0684 0.60585,0.0829 0.9065,0.0487 0.29027,-0.0331 0.58135,-0.11106 0.8375,-0.2421 0.2674,-0.13676 0.50795,-0.32925 0.69851,-0.55059 0.18029,-0.20933 0.32307,-0.45435 0.40103,-0.71232 0.0724,-0.2395 0.0731,-0.49706 0.0522,-0.74503 -0.0186,-0.22056 -0.0659,-0.44234 -0.15665,-0.64687 -0.11262,-0.25331 -0.28268,-0.48539 -0.47098,-0.69642 -0.0323,-0.0364 -0.0686,-0.0696 -0.1054,-0.10185 z" />
        <path
           id="path8117"
           style="fill:#cccccc;fill-opacity:1;stroke:none;stroke-width:0.268895px;stroke-linecap:butt;stroke-linejoin:miter;stroke-opacity:1"
           d="m 188.55804,151.71179 c -0.10883,0.009 -0.22204,0.0434 -0.30684,0.11034 -0.0937,0.0738 -0.16982,0.19113 -0.18372,0.30756 -0.0563,0.4692 -0.0695,-0.52597 -0.0924,3.29701 l 1.06971,-0.91143 c -0.057,-4.27302 0.0197,-1.95001 -0.0126,-2.34913 -0.009,-0.1203 -0.0787,-0.24247 -0.16604,-0.32811 -0.0691,-0.0678 -0.16477,-0.11812 -0.26112,-0.12536 -0.0162,-0.001 -0.031,-0.002 -0.0466,-9.2e-4 z"
           sodipodi:nodetypes="scccccscss" />
        <path
           style="fill:#cccccc;fill-opacity:1;stroke:none;stroke-width:0.478055px;stroke-linecap:butt;stroke-linejoin:miter;stroke-opacity:1"
           d="m 184.08336,157.15211 2.99928,1.61533 9.56492,-8.1514 0.40289,-0.31408 h 0.26859 l 0.29843,0.19444 0.19399,0.26922 0.0298,0.29913 -9.80365,14.28362 -0.37305,0.40383 -0.40289,0.16443 -0.44764,-0.0145 -0.2686,-0.17945 -0.28352,-0.32904 -4.56609,-7.82235 -0.0447,-0.43373 0.13427,-0.3141 0.25367,-0.35895 0.26858,-0.19444 0.29844,0.0449 0.38796,0.17945 z"
           id="path3180-6-0-5" />
      </g>
    </g>
  </g>
  <metadata
     id="metadata1">
    <rdf:RDF>
      <cc:Work
         rdf:about="" />
    </rdf:RDF>
  </metadata>
</svg>
